<?xml version="1.0" encoding="utf-8"?>
<!-- Generator: Adobe Illustrator 16.0.0, SVG Export Plug-In . SVG Version: 6.00 Build 0)  -->
<!DOCTYPE svg PUBLIC "-//W3C//DTD SVG 1.1//EN" "http://www.w3.org/Graphics/SVG/1.1/DTD/svg11.dtd">
<svg version="1.1" id="Layer_1" xmlns="http://www.w3.org/2000/svg" xmlns:xlink="http://www.w3.org/1999/xlink" x="0px" y="0px"
	 width="414.206px" height="150.228px" viewBox="0 0 414.206 150.228" enable-background="new 0 0 414.206 150.228"
	 xml:space="preserve">
<g>
	<g>
		<path fill="#FDFDFD" d="M207.822,150.707c-68.394,0-136.788-0.008-205.183,0.046c-1.799,0.001-2.207-0.405-2.205-2.205
			c0.057-48.716,0.056-97.432,0-146.148C0.432,0.756,0.756,0.434,2.4,0.435c136.948,0.049,273.897,0.049,410.846,0
			c1.643-0.001,1.967,0.321,1.966,1.965c-0.058,48.795-0.058,97.591,0,146.388c0.001,1.643-0.322,1.966-1.966,1.965
			C344.771,150.7,276.297,150.707,207.822,150.707z"/>
		<path fill-rule="evenodd" clip-rule="evenodd" fill="#1D1D1D" d="M219.329,55.635c-3.092,0.281-6.389,0.526-8.648-1.882
			c-2.12-2.258-4.506-3.477-7.277-4.734c-2.816-1.277-4.305-3.054-3.224-7.175c0.148-0.567,0.21-1.099-0.014-1.625
			c-2.301-5.406,0.415-9.622,6.147-9.525c2.338-4.959,6.608-6.683,11.821-4.728c1.558,0.584,2.808,0.667,4.372-0.442
			c3.36-2.384,9.804-1.481,12.542,1.624c0.863,0.98,1.273,0.894,2.303,0.338c3.541-1.915,6.945-0.855,10.113,1.007
			c1.37,0.806,2.409,2.104,2.292,3.95c-0.039,0.622-0.023,1.303,0.646,1.693c3.003,0.739,4.873,4.04,4.104,7.418
			c-0.155,0.682-0.324,1.376-0.512,2.058c-0.664,0.667-1.14,1.526-2.006,1.993c-0.552,0.282-1.113,0.818-1.655,0.799
			c-1.565-0.055-1.768,0.724-1.809,2.051c-0.073,2.337-2.957,5.051-6.311,5.078c-3.065,0.025-5.292,1.086-7.768,2.688
			c-3.709,2.4-8.751,1.664-12.029-1.159c-0.56-0.482-1.025-0.206-1.535-0.273C220.395,55.125,219.825,55.313,219.329,55.635z"/>
		<path fill-rule="evenodd" clip-rule="evenodd" fill="#282828" d="M50.342,106.999c-1.526,2.581-3.673,4.292-6.694,4.777
			c-1.017,0.781-2.257,0.714-3.407,0.737c-3.723,0.079-7.449,0.021-11.173,0.036c-0.83,0.004-1.577-0.121-2.125-0.812
			c-0.219-0.625-0.389-1.524,0.168-1.759c2.105-0.887,1.654-2.644,1.657-4.252c0.011-7.231,0-14.463-0.003-21.694
			c-0.322-0.991-1.311-1.148-2.043-1.633c-0.472-1.521,0.636-1.969,1.657-1.943c5.225,0.133,10.462-0.523,15.682,0.344
			c1.419,0.236,2.556,0.664,3.401,1.813c3.303,4.52,1.798,8.407-2.902,11.814c0.35,0.877,1.267,0.794,1.927,1.131
			c3.402,2.177,5.237,5.115,4.645,9.306C51.019,105.663,51.013,106.437,50.342,106.999z"/>
		<path fill-rule="evenodd" clip-rule="evenodd" fill="#434443" d="M224.134,82.561c-0.948-1.528,0.122-1.933,1.254-1.929
			c4.869,0.013,9.762-0.472,14.602,0.321c5.632,0.922,8.599,7.607,5.368,12.649c-2.133,3.327-5.226,5.744-9.539,5.825
			c-1.234,0.377-2.503,0.448-3.78,0.406c-1.403-0.046-2.061,0.71-2.111,2.022c-0.069,1.83-0.033,3.663-0.013,5.496
			c0.013,1.157,0.69,1.88,1.555,2.533c0.413,0.312,1.029,0.67,0.759,1.329c-0.245,0.596-0.913,0.562-1.446,0.583
			c-1.592,0.06-3.186,0.064-4.778-0.003c-0.549-0.023-1.187-0.062-1.444-0.639c-0.338-0.755,0.256-1.219,0.778-1.54
			c0.788-0.483,0.986-1.129,0.983-1.999c-0.028-7.727,0.003-15.453-0.022-23.181c-0.001-0.248-0.097-0.462-0.202-0.673
			C225.621,83.074,224.846,82.869,224.134,82.561z"/>
		<path fill-rule="evenodd" clip-rule="evenodd" fill="#292929" d="M188.096,95.919c1.939-4.062,6.098-5.798,10.214-4.147
			c1.421,0.569,1.874,0.245,1.823-1.237c-0.063-1.832-0.041-3.669-0.003-5.503c0.016-0.782-0.179-1.404-0.843-1.849
			c-2.033-1.363-0.804-2.239,0.563-2.755c1.123-0.424,2.372-1.026,3.636-0.249c0.477,0.817,0.235,1.712,0.237,2.566
			c0.021,8.108,0.022,16.216,0.002,24.324c-0.002,1.153-0.021,2.252,1.233,2.83c0.134,0.007,0.267,0.023,0.399,0.05
			c0.379,2.171-0.734,3.465-2.887,2.437c-2.195-1.049-3.829-0.34-5.642,0.199c-2.779,0.825-5.119,0.086-7.287-1.624
			c-3.284-3.897-4.487-8.174-2.375-13.053C187.696,97.348,187.715,96.549,188.096,95.919z"/>
		<path fill-rule="evenodd" clip-rule="evenodd" fill="#292929" d="M143.521,82.548c-0.795-1.562,0.918-1.605,1.437-2.372
			c1.266-0.47,2.531-0.938,3.764,0.083c0,4.15,0,8.301,0,12.759c3.763-1.997,7.275-3.006,10.628,0.091
			c0.574,0.574,0.851,1.355,1.379,1.962c1.381,3.89,0.867,7.931,0.958,11.924c0.024,1.071-0.257,2.272,1.032,2.902
			c0.502,0.651,0.496,1.306,0.014,1.962c-1.617,1.017-3.415,0.57-5.071,0.374c-1.591-0.188-1.273-1.2-0.836-2.621
			c1.483-4.83,1.832-9.754-0.379-14.546c-1.905-0.84-3.811-0.76-5.716,0.002c-1.625,0.78-2.107,2.045-1.998,3.833
			c0.159,2.62,0.048,5.257,0.038,7.886c-0.005,1.278-0.012,2.348,1.358,3.256c1.427,0.946,0.131,1.859-0.779,2.15
			c-0.946,0.302-2.044,0.145-3.076,0.163c-1.113,0.021-2.374,0.181-2.893-1.108c-0.563-1.396,1.095-1.486,1.567-2.297
			c0.517-1.226,0.224-2.512,0.231-3.765c0.036-6.448,0.03-12.896-0.001-19.343c-0.004-0.753,0.337-1.596-0.333-2.266l0.019,0.028
			C144.629,82.983,143.94,82.937,143.521,82.548z"/>
		<path fill-rule="evenodd" clip-rule="evenodd" fill="#444443" d="M265.355,102.999c0.001,1.52,0.021,3.039-0.008,4.559
			c-0.016,0.844,0.098,1.678,0.846,2.114c0.649,0.379,1.038,0.804,0.809,1.508c-0.251,0.771-0.978,1.013-1.709,1.105
			c-0.471,0.06-1.146,0.206-1.406-0.035c-2.062-1.905-3.825-0.479-5.854,0.171c-3.598,1.154-7.607-0.621-8.479-3.341
			c-1.311-4.092,0.513-8.396,4.279-9.93c1.923-0.782,3.898-1.393,6.038-1.258c1.759,0.11,1.885-0.523,0.878-1.884
			c-1.428-1.929-4.381-2.728-6.521-1.59c-0.486,0.259-0.964,0.54-1.469,0.756c-0.778,0.333-1.684,0.99-2.271-0.158
			c-0.57-1.115-0.029-2.193,0.942-2.647c3.321-1.556,6.802-1.816,10.104-0.085c2.864,1.501,3.978,4.15,3.827,7.356
			C265.312,100.758,265.355,101.88,265.355,102.999z"/>
		<path fill-rule="evenodd" clip-rule="evenodd" fill="#2A2929" d="M108.937,94.995c-1.611,0.808-2.181,2.116-2.125,3.897
			c0.09,2.87,0.006,5.745,0.035,8.617c0.009,0.844-0.064,1.67,0.833,2.32c1.78,1.291,0.342,2.155-0.705,2.402
			c-1.361,0.32-2.854,0.129-4.287,0.08c-0.668-0.022-1.238-0.378-1.432-1.079c-0.194-0.696,0.083-1.157,0.716-1.564
			c1.012-0.652,1.274-1.663,1.238-2.867c-0.076-2.551-0.05-5.106-0.012-7.659c0.022-1.498-0.26-2.854-1.409-3.906
			c-1.283-1.175-0.647-2.187,0.38-2.967c1.002-0.761,2.189-2,3.298-0.107c0.744,1.27,1.245,1.324,2.53,0.36
			c3.686-2.766,9.488-1.4,10.738,2.557c0.655,2.07,0.536,4.4,0.656,6.62c0.095,1.75,0.053,3.511,0.007,5.265
			c-0.026,1.003,0.236,1.868,0.817,2.674c1.184,1.643,0.796,2.538-1.213,2.702c-1.03,0.085-2.074-0.014-3.11,0.022
			c-0.982,0.035-1.81-0.288-2.077-1.237c-0.285-1.014,0.752-1.24,1.338-1.71c0.658-0.732,0.509-1.638,0.514-2.5
			c0.014-2.703,0.068-5.408-0.021-8.108c-0.046-1.375,0.173-2.938-1.398-3.788l-0.007-0.001
			C112.475,94.22,110.707,94.417,108.937,94.995z"/>
		<path fill-rule="evenodd" clip-rule="evenodd" fill="#444544" d="M306.193,94.989c-2.259,0.984-2.238,3.14-2.39,5.05
			c-0.188,2.372-0.03,4.771-0.054,7.157c-0.01,1.003,0.18,1.943,1.026,2.525c0.863,0.595,0.786,1.271,0.447,2.064
			c-1.707,1.315-3.641,0.879-5.455,0.506c-1.365-0.281-1.853-1.378-0.677-2.435c0.852-0.766,0.874-1.625,0.879-2.565
			c0.017-3.093-0.04-6.188,0.027-9.279c0.028-1.307-0.304-2.33-1.425-3.044c-0.851-2.209,1.065-2.726,2.292-3.496
			c1.336-0.841,1.687,0.625,2.286,1.342c0.345,0.412,0.478,1.122,1.2,0.414c2.138-2.096,4.823-2.129,7.553-1.975
			c0.631,0.373,1.398,0.439,1.991,0.894c1.907,1.565,2.695,3.606,2.653,6.042c-0.037,2.221-0.012,4.443,0.009,6.666
			c0.017,1.995-0.463,4.136,1.617,5.556c0.138,0.094-0.006,0.598-0.019,0.91c-1.859,0.943-3.836,0.522-5.75,0.376
			c-1.439-0.109-0.973-1.042-0.459-1.827c0.535-0.615,0.849-1.298,0.843-2.146c-0.023-3.399-0.019-6.799-0.014-10.197
			c0.001-0.913-0.337-1.689-0.872-2.401C310.025,94.055,308.116,94.227,306.193,94.989z"/>
		<path fill-rule="evenodd" clip-rule="evenodd" fill="#444544" d="M326.027,106.964c1.392,0.937,2.301,2.566,4.128,2.875
			c2.406,0.406,4.215-0.628,5.903-2.237c0.604-0.576,1.325-2.068,2.426-0.972c0.915,0.913,0.328,2.09-0.556,2.886
			c-0.922,0.831-1.937,1.56-2.911,2.333c-3.73,1.858-7.233,1.434-10.529-1.054c-1.935-2.559-3.59-5.22-3.321-8.631
			c0.455-5.785,5.565-11.429,10.675-10.975c3.249,0.289,6.137,2.212,6.826,5.156c0.465,1.984-1.945,5.623-4.588,6.579
			c-1.83,0.663-3.668,1.514-5.721,1.27c-0.415,0.219-0.849,0.404-1.322,0.413C324.94,104.645,325.201,105.681,326.027,106.964z"/>
		<path fill-rule="evenodd" clip-rule="evenodd" fill="#292929" d="M71.346,110.944c-3.25-2.765-2.352-9.313,1.731-11.351
			c1.869-0.932,3.898-1.729,6.106-1.752c0.824-0.008,1.958,0.479,2.416-0.438c0.442-0.886-0.83-1.418-1.015-2.262
			c-1.792-1.961-3.908-1.784-6.128-0.934c-0.106,0.208-0.195,0.586-0.32,0.599c-1.182,0.116-2.642,1.94-3.467,0.031
			c-0.702-1.626,0.768-2.349,2.236-2.925c4.239-1.665,10.077-0.535,11.591,3.09c0.423,0.599,0.467,1.368,0.892,1.966
			c0.035,3.653,0.069,7.308,0.104,10.961c0.17,0.835,0.509,1.574,1.2,2.115c0.546,0.704,0.599,1.383-0.375,1.64
			c-0.991,0.262-2.344,0.554-2.977-0.134c-1.398-1.521-2.379-0.688-3.627,0.062C76.799,113.37,74.001,112.851,71.346,110.944z"/>
		<path fill-rule="evenodd" clip-rule="evenodd" fill="#444544" d="M364.293,99.347c3.48,0.181,6.635,2.754,7.065,4.642
			c0.646,2.842-0.373,5.705-2.682,7.32c-3.073,2.151-6.479,1.979-10.102-0.508c-0.56-0.291-0.6-0.966-1.013-1.365
			c-0.525-2.611-0.174-3.049,1.916-2.383c0.759,1.191,1.738,2.14,3.018,2.76c0.131-0.021,0.249,0.009,0.355,0.087
			c1.12,0.709,2.238,0.727,3.354-0.009c2.711-2.685,2.154-4.601-1.343-5.916c-2.305-0.867-4.943-1.052-6.519-3.698
			c-2.019-3.393,1.085-8.812,5.279-9.024c0.636-0.033,1.274-0.027,1.911-0.008c3.727,0.112,5.023,1.471,4.976,5.197
			c-1.406,0.976-2.217,0.013-3.034-0.927c-1.614-2.33-3.491-2.481-6.246-0.505c-0.048,0.199-0.109,0.395-0.182,0.586
			c-0.526,0.76-0.47,1.468,0.198,2.121C361.927,98.889,363.348,98.675,364.293,99.347z"/>
		<path fill-rule="evenodd" clip-rule="evenodd" fill="#2A2929" d="M135.809,95.522c-2.942-2.197-3.925-2.116-6.189,0.513
			c-0.208,1.193-1.149,2.099-1.304,3.312c-0.374,1.833-0.642,3.668-0.081,5.516c0.189,0.389,0.052,0.88,0.381,1.226
			c2.501,4.64,5.352,5.174,8.98,1.579c0.812-0.804,1.626-1.132,2.456-0.487c1.038,0.807-0.328,1.472-0.387,2.245
			c-0.447,0.714-0.913,1.407-1.78,1.672c-0.655,0.453-1.507,0.579-2.05,1.224c-3.793,1.091-7.133,0.372-9.936-2.49
			c-1.536-2.353-2.434-4.847-2.347-7.745c0.079-2.613,0.873-4.879,2.346-6.97c2.311-2.471,4.845-4.376,8.542-3.922
			c1.053,0.13,2.007,0.28,2.823,0.974c1.042,0.814,2.242,1.467,2.186,3.116c-0.033,0.974-0.297,1.767-1.177,2.12
			c-0.843,0.339-1.215-0.511-1.687-0.993C136.312,96.132,136.104,95.788,135.809,95.522z"/>
		<path fill-rule="evenodd" clip-rule="evenodd" fill="#2B2B2B" d="M59.663,95.163c1.353-1.352,1.924-2.905,3.442-3.602
			c2.146-0.985,3.934-0.075,4.115,2.212c0.108,1.367-0.349,2.095-1.895,1.98c-3.023-0.223-4.762,1.266-4.941,4.332
			c-0.148,2.545-0.079,5.102-0.096,7.653c-0.005,0.729,0.062,1.454,0.738,1.918c0.535,0.366,1.226,0.823,0.886,1.466
			c-0.35,0.659-1.017,1.231-1.93,1.221c-0.718-0.009-1.436,0.021-2.153,0.019c-3.45-0.01-3.7-0.392-2.055-3.261
			c0.466-0.812,0.482-1.658,0.479-2.538c-0.01-2.473,0.043-4.946-0.024-7.417c-0.034-1.245-0.071-2.599-1.224-3.422
			c-0.771-0.55-1.625-1.191-1.027-2.07c0.761-1.117,1.639-2.355,3.27-2.41c1.274-0.042,1.713,0.937,2.109,1.854
			C59.568,93.591,59.53,94.189,59.663,95.163z"/>
		<path fill-rule="evenodd" clip-rule="evenodd" fill="#2D2C2C" d="M177.557,81.056c0.345-0.27,0.69-0.539,1.036-0.809
			c1.245-0.634,2.489-0.966,3.73,0.008c0.011,8.849,0.029,17.698,0.025,26.548c0,1.137-0.021,2.217,1.07,2.964
			c1.769,1.211,0.628,2.225-0.527,2.431c-1.74,0.311-3.625,0.606-5.35-0.337c-1.709-1.859,0.646-2.093,1.216-3.043
			c0.084-7.904,0.017-15.806,0.025-23.707c0-0.519,0.247-1.135-0.357-1.528l0.027,0.042
			C178.003,82.819,176.62,82.342,177.557,81.056z"/>
		<path fill-rule="evenodd" clip-rule="evenodd" fill="#454645" d="M269.813,93.146c0.623-0.46,1.227-0.951,1.874-1.374
			c1.28-0.837,2.393-0.905,2.909,0.849c0.586,1.989,1.434,2.146,2.604,0.428c0.808-1.188,1.877-1.865,3.357-1.81
			c2.105,0.078,2.366,1.478,2.282,3.141c-0.094,1.861-1.415,1.435-2.428,1.17c-1.522-0.397-2.307,0.218-3.078,1.461
			c-2.16,3.477-1.639,7.302-1.553,11.054c0.018,0.757,0.592,1.634,1.574,1.879c0.491,0.595,0.365,1.159-0.082,1.71
			c-1.06,1.303-5.839,1.292-6.889,0.008c-0.607-0.743-0.346-1.379,0.267-1.849c1.246-0.955,1.33-2.24,1.259-3.634
			c-0.157-3.078,0.281-6.172-0.237-9.241l0.022-0.012c-0.402-0.878-1.293-1.275-1.91-1.942l-0.034,0.04
			C269.232,94.38,269.259,93.755,269.813,93.146z"/>
		<path fill-rule="evenodd" clip-rule="evenodd" fill="#444544" d="M342.653,93.056c2.375-2.546,3.135-2.547,4.391-0.005
			c0.131,0.198,0.163,0.423,0.197,0.653c0.075,0.499-0.253,1.261,0.394,1.419c0.756,0.184,0.844-0.737,1.245-1.154
			c0.895-2.139,2.558-2.936,4.788-2.738c0.657,0.335,1.178,0.777,1.452,1.507c0.793,2.105,0.171,3.2-2.031,2.947
			c-1.785-0.204-2.906,0.364-3.76,1.799c-0.463,0.635-1.073,1.174-1.294,1.97c-0.011,2.617,0.024,5.235-0.057,7.851
			c-0.032,1.042,0.286,1.842,0.996,2.542c0.473,0.785,0.979,1.735-0.47,1.851c-1.92,0.152-3.899,0.558-5.767-0.368
			c-0.012-0.312-0.156-0.711-0.016-0.919c3.129-4.62,1.576-9.521,0.9-14.368C342.739,95.228,341.378,94.569,342.653,93.056z"/>
		<path fill-rule="evenodd" clip-rule="evenodd" fill="#464746" d="M291.407,108.914c1.077,0.238,2.168,0.43,3.226,0.732
			c0.494,0.141,1.134,0.198,1.29,0.891c0.164,0.725-0.415,0.979-0.845,1.292c-0.965,0.701-5.717,0.659-6.712,0.069
			c-0.971-0.576-0.808-1.459-0.81-2.314c-0.007-4.461-0.006-8.921-0.001-13.382c0.001-1.183,0.296-2.544-1.686-2.263
			c-0.699,0.1-0.951-0.443-1.147-0.987c-0.23-0.636,0.134-1.383,0.529-1.432c3.619-0.456,2.546-3.555,3.238-5.63
			c0.213-0.639-0.123-1.485,0.745-1.851c0.478-0.201,0.929-0.22,1.175,0.368c0.839,1.495,0.461,3.131,0.398,4.681
			c-0.079,1.938,0.513,2.84,2.548,2.612c0.659-0.073,1.715-0.203,1.788,0.679c0.078,0.944-0.875,1.271-1.728,1.182
			c-2.219-0.234-2.673,0.891-2.598,2.855c0.127,3.339,0.021,6.686,0.045,10.029C290.87,107.295,290.636,108.223,291.407,108.914z"/>
		<path fill-rule="evenodd" clip-rule="evenodd" fill="#2A2A2A" d="M173.719,109.954c0.378,0.846,0.33,1.659-0.61,1.997
			c-1.914,0.688-3.906,0.74-5.793-0.029c-0.988-0.402-1.188-1.383-0.228-2.023c1.439-0.961,1.426-2.304,1.401-3.754
			c-0.041-2.479-0.036-4.959-0.017-7.438c0.012-1.524,0.16-3.064-1.834-3.584c-0.315-0.082-0.704-0.511-0.76-0.83
			c-0.126-0.725,3.362-3.094,4.49-3.027c1.597,0.094,1.811,1.256,1.827,2.545c0.062,5.032,0.137,10.063,0.208,15.096
			C172.656,109.487,173.346,109.521,173.719,109.954z"/>
		<path fill-rule="evenodd" clip-rule="evenodd" fill="#1F1F1F" d="M211.264,61.517c1.72-2.416,4.723-1.696,6.985-2.815
			c0.704-0.349,1.707-0.268,2.394,0.561c0.385,0.466,0.919,1.081,1.426,1.123c1.399,0.113,3.127,0.564,2.305,1.989
			c-0.883,1.531-0.096,4.035-3.459,4.656c-2.696,0.498-4.994-0.182-7.465-0.128c-0.862,0.02-1.356-0.342-1.393-1.241
			c-0.023-0.607,0.164-1.339-0.792-1.435C210.396,63.323,210.335,62.42,211.264,61.517z"/>
		<path fill-rule="evenodd" clip-rule="evenodd" fill="#2C2B2B" d="M91.156,109.854c0.207-0.238,0.544-0.449,0.603-0.72
			c0.928-4.283,0.388-8.608,0.28-12.917c-0.015-0.593-0.862-0.606-1.272-0.951c-0.807-0.679-0.818-1.422-0.075-2.173
			c0.478-0.329,1.072-0.468,1.481-0.907c0.98-0.183,1.667-1.239,2.809-0.945c1.042,1.423,1.444,3.062,1.474,4.778
			c0.051,2.927-0.008,5.854,0.022,8.782c0.02,1.994-0.472,4.113,1.342,5.718c0.255,0.226,0.222,0.744-0.145,1.057
			c-1.72,1.171-3.644,0.837-5.472,0.546C91.125,111.949,90.021,111.29,91.156,109.854z"/>
		<path fill-rule="evenodd" clip-rule="evenodd" fill="#313030" d="M250.173,34.485c-1.472-0.011-1.107-1.15-1.051-1.912
			c0.169-2.264-0.945-3.533-2.928-4.341c-3.188-1.301-6.34-2.07-9.504,0.04c-0.664,0.443-1.048,0.154-1.561-0.434
			c-3.204-3.674-9.235-4.343-13.099-1.479c-0.979,0.727-1.705,0.812-2.968,0.307c-4.418-1.767-8.505-2.302-12.75,4.029
			c0.811-5.811,7.869-6.646,11.964-5.142c1.338,0.491,2.206,0.871,3.586-0.234c2.865-2.297,11.33-1.882,13.479,1.524
			c0.666,1.055,1.094,0.554,1.884,0.236c4.945-1.993,9.713-0.736,12.366,3.151C250.398,31.564,249.884,33.08,250.173,34.485z"/>
		<path fill-rule="evenodd" clip-rule="evenodd" fill="#5C5A59" d="M226.02,83.061c0.802,0.584,0.525,1.448,0.527,2.207
			c0.02,7.335,0.016,14.671,0.006,22.006c-0.001,0.855,0.187,1.781-0.639,2.434c-0.413,0.326-1.206,0.481-1.011,1.145
			c0.239,0.814,1.079,0.463,1.659,0.478c1.748,0.045,3.497,0.017,6.042,0.017c-4.343-2.271-3.044-5.764-3.14-8.812
			c-0.083-2.653,0.558-3.168,3.251-3.188c1.034-0.009,2.067,0.053,3.103,0.083c-0.792,0.587-1.66,0.975-2.665,0.846
			c-2.41-0.308-3.087,0.897-2.838,3.079c0.116,1.023,0.094,2.078,0.002,3.106c-0.127,1.415,0.33,2.471,1.525,3.249
			c1.718,1.12,0.902,2.091-0.43,2.435c-2.003,0.517-4.142,0.497-6.153,0.015c-1.309-0.313-1.924-1.453-0.567-2.434
			c1.297-0.938,1.419-2.067,1.409-3.466c-0.051-7.417-0.039-14.835-0.05-22.253C225.786,83.698,225.77,83.384,226.02,83.061z"/>
		<path fill-rule="evenodd" clip-rule="evenodd" fill="#686666" d="M291.407,108.914c-1.036-0.034-1.045-0.784-1.046-1.522
			c-0.006-4.06,0.025-8.119-0.022-12.179c-0.018-1.465,0.778-1.928,2.037-2.09c0.801-0.103,1.761,0.364,2.389-0.567
			c-0.115-0.134-0.198-0.319-0.295-0.327c-4.116-0.305-4.12-0.303-4.114-4.48c0.002-1.114,0.036-2.227,0.055-3.34
			c1.762,1.149,0.78,2.912,0.784,4.332c0.006,1.927,0.455,2.833,2.512,2.53c1.02-0.149,2.168,0.18,2.111,1.316
			c-0.058,1.143-1.143,1.623-2.314,1.437c-1.794-0.284-2.337,0.433-2.267,2.23C291.402,100.47,291.363,104.693,291.407,108.914z"/>
		<path fill-rule="evenodd" clip-rule="evenodd" fill="#2D2C2C" d="M213.103,71.313c0.424,2.637-2.006,2.502-3.188,2.861
			c-1.217,0.369-2.796-0.809-2.963-2.326c-0.204-1.845,1.768-3.112,4.425-2.989C212.915,68.931,213.211,70.088,213.103,71.313z"/>
		<path fill-rule="evenodd" clip-rule="evenodd" fill="#B4B2B2" d="M97.487,111.412c0.032-0.297,0.199-0.771,0.075-0.865
			c-2.11-1.619-1.653-3.918-1.672-6.092c-0.029-3.423-0.008-6.847-0.12-10.268c-0.033-0.998-0.057-2.094-0.789-2.947
			c1.836,1.039,1.816,2.922,1.873,4.61c0.126,3.751,0.038,7.509,0.041,11.264c0.001,0.951,0.016,1.797,0.864,2.584
			c1.367,1.268,0.568,2.634-0.775,2.889c-1.865,0.354-3.904,0.724-5.776-0.293c1.186-0.534,2.428-0.155,3.639-0.186
			C95.812,112.084,96.68,111.924,97.487,111.412z"/>
		<path fill-rule="evenodd" clip-rule="evenodd" fill="#363636" d="M93.289,88.582c-1.317-0.181-2.246-0.951-2.163-2.769
			c0.083-1.809,1.364-2.299,2.699-2.359c1.569-0.071,2.612,1.073,2.527,2.559C96.27,87.481,95.417,88.702,93.289,88.582z"/>
		<path fill-rule="evenodd" clip-rule="evenodd" fill="#323232" d="M172.23,84.574c-0.175,1.315,0.652,2.998-1.196,3.714
			c-1.142,0.442-2.59,0.586-3.254-0.52c-0.834-1.39-0.887-3.021,0.739-4.159C170.125,82.513,171.149,83.651,172.23,84.574z"/>
		<path fill-rule="evenodd" clip-rule="evenodd" fill="#C3C2C1" d="M298.573,94.969c1.524,0.322,2.008,1.363,1.999,2.802
			c-0.02,3.188-0.021,6.378,0.004,9.566c0.008,1.018-0.282,1.838-1.077,2.52c-1.526,1.311-0.474,1.973,0.759,2.188
			c1.642,0.287,3.332,0.229,4.966-0.259c-1.268,1.545-6.021,1.421-7.089-0.125c-0.492-0.711-0.263-1.353,0.22-1.667
			c1.321-0.861,1.189-2.112,1.186-3.379c-0.009-2.701-0.067-5.404,0.024-8.103C299.61,97.184,299.349,96.026,298.573,94.969z"/>
		<path fill-rule="evenodd" clip-rule="evenodd" fill="#6F6D6D" d="M204.958,109.899c-1.713-0.06-1.499-1.355-1.499-2.432
			c-0.005-9.096,0.015-18.192,0.027-27.289c0.8,0.711,0.395,1.65,0.399,2.471c0.036,7.913,0.049,15.826-0.006,23.738
			C203.87,107.725,204.052,108.896,204.958,109.899z"/>
		<path fill-rule="evenodd" clip-rule="evenodd" fill="#CDCBCB" d="M271.673,96.938c1.032,3.836,0.395,7.726,0.347,11.596
			c-0.004,0.286-0.242,0.586-0.413,0.853c-0.384,0.601-1.653,0.786-1.056,1.822c0.531,0.921,1.583,1.073,2.554,0.95
			c1.669-0.211,4.099,0.931,4.251-2.215c1.637,1.648,0.299,2.496-1.025,2.765c-1.533,0.311-3.194,0.212-4.77,0.027
			c-1.871-0.219-2.441-1.882-1.1-3.241c0.949-0.96,1.157-1.973,1.146-3.224C271.578,103.16,271.645,100.049,271.673,96.938z"/>
		<path fill-rule="evenodd" clip-rule="evenodd" fill="#454342" d="M71.346,110.944c0.93,0.229,1.771,0.682,2.649,1.028
			c2.256,0.891,4.427,0.225,6.293-1.098c1.126-0.799,1.8-1.346,2.931,0.045c0.74,0.911,2.12,0.543,3.166,0.263
			c0.661-0.178,0.156-0.776-0.033-1.179c0.131-0.301,0.321-0.344,0.569-0.129c0.865,0.592,0.875,1.36,0.131,1.938
			c-1.254,0.976-3.032,1.14-3.977,0.14c-1.298-1.375-2.065-0.765-3.171-0.071C77.159,113.604,73.493,113.177,71.346,110.944z"/>
		<path fill-rule="evenodd" clip-rule="evenodd" fill="#B2B0B0" d="M47.461,82.614c-2.081-1.536-4.45-1.919-6.975-1.879
			c-3.823,0.062-7.648-0.033-11.469,0.054c-0.978,0.022-2.793-0.3-1.714,1.835c0.193,0.075,0.263,0.162,0.212,0.263
			c-0.054,0.105-0.11,0.159-0.169,0.159c-0.832-0.057-1.407-0.459-1.305-1.329c0.103-0.88,0.783-1.43,1.605-1.521
			c1.255-0.137,2.533-0.162,3.796-0.11c4.492,0.185,9.016-0.516,13.48,0.517C46.123,80.881,47.151,81.266,47.461,82.614z"/>
		<path fill-rule="evenodd" clip-rule="evenodd" fill="#BCBBBA" d="M189.542,110.961c3.287,1.725,6.573,2.578,9.951,0.172
			c0.676-0.48,1.195-0.111,1.788,0.504c0.917,0.949,2.171,0.644,3.307,0.274c1.011-0.329,0.879-1.164,0.771-1.962
			c0.909,1.878,0.58,2.727-1.24,2.82c-1.145,0.059-2.299,0.229-3.439-0.497c-1.587-1.012-2.879,0.64-4.363,0.886
			C193.984,113.546,191.11,112.908,189.542,110.961z"/>
		<path fill-rule="evenodd" clip-rule="evenodd" fill="#6F6D6D" d="M114.247,95.019c1.227-0.022,1.281,0.899,1.48,1.768
			c0.862,3.769,0.272,7.58,0.363,11.371c0.014,0.591-0.365,1.031-0.937,1.258c0.021-3.796,0.021-7.591,0.078-11.387
			C115.248,96.887,114.999,95.884,114.247,95.019z"/>
		<path fill-rule="evenodd" clip-rule="evenodd" fill="#514F4E" d="M178.423,83.582c0.886,0.39,0.643,1.198,0.645,1.87
			c0.016,7.329,0.013,14.658,0.002,21.987c-0.001,0.697,0.147,1.458-0.515,1.995c-0.133-0.099-0.198-0.214-0.193-0.346
			c0.004-0.14,0.024-0.21,0.058-0.21C178.688,100.446,178.675,92.015,178.423,83.582z"/>
		<path fill-rule="evenodd" clip-rule="evenodd" fill="#575555" d="M144.845,83.577c0.866,0.404,0.633,1.208,0.635,1.883
			c0.016,7.172,0.015,14.343,0,21.514c-0.001,0.689,0.171,1.461-0.533,1.977C144.913,100.492,144.879,92.035,144.845,83.577z"/>
		<path fill-rule="evenodd" clip-rule="evenodd" fill="#A7A5A5" d="M250.173,34.485c-1.185-1.283-0.173-2.866-0.581-4.255
			c0.604,3.386,4.344,4.778,5.122,8.057c0.554,2.331,0.312,4.494-1.276,6.393c-0.299-0.284-0.294-0.57-0.005-0.857
			c1.288-2.612,1.239-5.156-0.387-7.619C252.365,35.173,251.526,34.397,250.173,34.485z"/>
		<path fill-rule="evenodd" clip-rule="evenodd" fill="#D0CECE" d="M125.898,95.116c-0.88,2.71-2.32,5.25-2.017,8.29
			c0.231,2.312,1.491,4.241,2.018,6.425c-2.42-2.374-3.653-8.03-2.118-11C124.427,97.583,124,95.65,125.898,95.116z"/>
		<path fill-rule="evenodd" clip-rule="evenodd" fill="#C1BEBE" d="M26.942,111.738c4.859,0.831,9.737,0.512,14.608,0.194
			c0.696-0.046,1.379-0.324,2.097-0.156c-0.057,1.072-0.871,0.983-1.574,0.987c-4.555,0.024-9.109,0.039-13.664,0.034
			C27.708,112.797,26.877,112.854,26.942,111.738z"/>
		<path fill-rule="evenodd" clip-rule="evenodd" fill="#D9D8D8" d="M348.927,97.431c1.03-1.51,2.063-2.646,4.276-1.898
			c1.485,0.501,2.157-0.449,1.753-2.083c-0.225-0.906-0.761-1.538-1.288-2.219c2.282,0.245,2.109,1.955,2.019,3.519
			c-0.101,1.737-1.571,1.447-2.503,1.242c-2.523-0.553-3.108,1.575-4.342,2.828C348.494,98.334,348.607,97.876,348.927,97.431z"/>
		<path fill-rule="evenodd" clip-rule="evenodd" fill="#C8C6C6" d="M50.342,106.999c1.78-4.847-0.217-8.419-3.855-11.439
			c2.586,0.912,5.054,3.82,4.847,6.307C51.192,103.571,52.572,105.681,50.342,106.999z"/>
		<path fill-rule="evenodd" clip-rule="evenodd" fill="#D9D7D7" d="M324.488,110.795c3.347,1.982,6.856,2.335,10.529,1.054
			c-0.899,1.743-3.269,1.834-4.15,1.648C328.688,113.038,325.907,113.27,324.488,110.795z"/>
		<path fill-rule="evenodd" clip-rule="evenodd" fill="#7F7C7C" d="M311.947,109.87c-0.221,1.01-0.106,1.656,1.221,1.557
			c1.656-0.124,3.324-0.078,4.988-0.105c-1.252,1.308-5.489,1.697-6.663,0.534C310.691,111.062,310.374,110.205,311.947,109.87z"/>
		<path fill-rule="evenodd" clip-rule="evenodd" fill="#7D7A7A" d="M342.738,111.328c1.669,0.023,3.344-0.028,5.006,0.094
			c1.343,0.098,1.429-0.577,1.23-1.576c1.577,0.357,1.246,1.167,0.402,1.964C348.118,113.001,344.046,112.672,342.738,111.328z"/>
		<path fill-rule="evenodd" clip-rule="evenodd" fill="#6B6969" d="M135.809,95.522c0.284,0.113,0.623,0.163,0.841,0.352
			c0.569,0.495,0.779,1.854,1.934,0.86c0.936-0.805,0.851-1.796,0.147-2.738c-0.467-0.626-0.977-1.22-1.468-1.828
			c0.868-0.088,1.203,0.642,1.715,1.108c1.059,0.967,0.85,2.195,0.559,3.333c-0.177,0.691-0.866,1.231-1.653,1.109
			C136.686,97.533,136.036,96.695,135.809,95.522z"/>
		<path fill-rule="evenodd" clip-rule="evenodd" fill="#BEBCBB" d="M128.153,99.354c0.129-1.266,0.691-2.339,1.466-3.319
			c-1.301,3.255-0.966,6.673-1.003,10.054c-0.46-0.18-0.366-0.625-0.468-0.977C127.237,103.191,127.675,101.273,128.153,99.354z"/>
		<path fill-rule="evenodd" clip-rule="evenodd" fill="#676564" d="M97.487,111.412c-1.871,1.873-4.201,0.476-6.278,0.882
			c-1.348-1.363-1.355-1.722-0.053-2.44c-0.292,1.025,0.002,1.609,1.141,1.797C94.055,111.939,95.77,111.764,97.487,111.412z"/>
		<path fill-rule="evenodd" clip-rule="evenodd" fill="#585756" d="M360.985,95.124c1.79-2.426,4.795-2.431,6.626-0.01
			c-0.33,0.205-0.637,0.192-0.914-0.097c-1.78-1.956-3.493-0.826-5.211,0.11C361.317,95.271,361.15,95.27,360.985,95.124z"/>
		<path fill-rule="evenodd" clip-rule="evenodd" fill="#777575" d="M150.73,95.067c2.184-1.562,4.029-1.563,5.716-0.002
			C154.541,94.792,152.635,94.915,150.73,95.067z"/>
		<path fill-rule="evenodd" clip-rule="evenodd" fill="#504E4E" d="M74.456,94.209c2.731-1.658,4.476-1.392,6.128,0.934
			C78.662,94.039,76.62,93.724,74.456,94.209z"/>
		<path fill-rule="evenodd" clip-rule="evenodd" fill="#8F8D8D" d="M306.193,94.989c1.815-1.506,3.824-1.458,5.711,0.136
			C310.01,94.709,308.102,94.844,306.193,94.989z"/>
		<path fill-rule="evenodd" clip-rule="evenodd" fill="#6E6C6C" d="M326.027,106.964c-0.898-0.478-1.39-1.394-0.93-2.166
			c0.738-1.238,2.124-0.6,3.262-0.604C327.815,105.314,325.096,104.603,326.027,106.964z"/>
		<path fill-rule="evenodd" clip-rule="evenodd" fill="#ACA9A9" d="M360.985,95.124c0.166,0.002,0.334,0.003,0.501,0.004
			c-0.934,2.649,1.587,3.002,2.807,4.219c-1.262-0.143-2.59-0.13-3.354-1.436c-0.515-0.79-0.616-1.592-0.067-2.412
			C360.934,95.382,360.971,95.257,360.985,95.124z"/>
		<path fill-rule="evenodd" clip-rule="evenodd" fill="#717070" d="M108.937,94.995c1.773-1.338,3.542-1.822,5.302,0.022
			C112.472,95.01,110.705,95.003,108.937,94.995z"/>
		<path fill-rule="evenodd" clip-rule="evenodd" fill="#CECCCC" d="M366.697,95.018c0.305,0.032,0.609,0.064,0.914,0.097
			c0.702,1.02,1.496,1.839,2.899,1.327c-0.451,2.033-1.678,0.607-2.335,0.344C367.548,96.534,367.18,95.633,366.697,95.018z"/>
		<path fill-rule="evenodd" clip-rule="evenodd" fill="#CCCBCB" d="M148.722,80.259c-1.246-0.43-2.508-0.081-3.764-0.083
			C146.232,79.303,147.517,77.979,148.722,80.259z"/>
		<path fill-rule="evenodd" clip-rule="evenodd" fill="#CDCCCB" d="M182.322,80.255c-1.242-0.419-2.486-0.133-3.73-0.008
			C179.838,79.207,181.084,78.033,182.322,80.255z"/>
		<path fill-rule="evenodd" clip-rule="evenodd" fill="#7B7A7A" d="M362.496,109.812c-1.677-0.187-2.681-1.108-3.018-2.76
			C360.675,107.766,361.596,108.778,362.496,109.812z"/>
		<path fill-rule="evenodd" clip-rule="evenodd" fill="#605F5E" d="M348.88,93.969c-0.021,0.973-0.504,2.03-1.422,1.673
			c-0.94-0.366-0.423-1.676-0.414-2.591c0.192,0.557,0.385,1.114,0.584,1.69C348.088,94.533,348.247,93.858,348.88,93.969z"/>
		<path fill-rule="evenodd" clip-rule="evenodd" fill="#C9C8C7" d="M172.23,84.574c-1.095-0.868-2.374-1.028-3.711-0.965
			C169.84,82.272,171.086,82.598,172.23,84.574z"/>
		<path fill-rule="evenodd" clip-rule="evenodd" fill="#6C6969" d="M366.206,109.891c-1.114,1.447-2.232,1.476-3.354,0.009
			C363.97,109.896,365.088,109.894,366.206,109.891z"/>
		<path fill-rule="evenodd" clip-rule="evenodd" fill="#7D7A7A" d="M342.653,93.056c-0.647,1.31,0.538,2.025,0.97,2.985
			C341.215,94.783,341.079,94.365,342.653,93.056z"/>
		<path fill-rule="evenodd" clip-rule="evenodd" fill="#514F4E" d="M177.557,81.056c-0.349,1.081,1.083,1.542,0.894,2.568
			C176.261,82.371,176.229,82.28,177.557,81.056z"/>
		<path fill-rule="evenodd" clip-rule="evenodd" fill="#B5B3B3" d="M178.419,108.879c0.046,0.186,0.091,0.371,0.136,0.556
			c-0.878,0.583-1.908,1.103-1.015,2.426C175.974,110.654,176.103,110.218,178.419,108.879z"/>
		<path fill-rule="evenodd" clip-rule="evenodd" fill="#999897" d="M211.264,61.517c-0.205,0.903-0.341,1.806,0.001,2.709
			C209.786,63.434,209.786,62.78,211.264,61.517z"/>
		<path fill-rule="evenodd" clip-rule="evenodd" fill="#BDBBBB" d="M269.785,94.983c0.924,0.365,2.059,0.523,1.91,1.942
			C270.976,96.359,269.871,96.174,269.785,94.983z"/>
		<path fill-rule="evenodd" clip-rule="evenodd" fill="#AFACAD" d="M137.771,110.894c0.631-0.488,1.263-0.978,1.894-1.468
			c0.187,1.428-0.915,1.63-1.873,1.97c-0.166-0.104-0.224-0.214-0.175-0.327C137.667,110.952,137.717,110.894,137.771,110.894z"/>
		<path fill-rule="evenodd" clip-rule="evenodd" fill="#868383" d="M162.732,111.858c-0.005-0.653-0.009-1.308-0.014-1.962
			c0.727-0.095,0.97,0.321,0.987,0.953C163.722,111.506,163.409,111.861,162.732,111.858z"/>
		<path fill-rule="evenodd" clip-rule="evenodd" fill="#828080" d="M160.729,95.07c-1.008-0.269-1.161-1.138-1.379-1.962
			C160.46,93.305,160.661,94.141,160.729,95.07z"/>
		<path fill-rule="evenodd" clip-rule="evenodd" fill="#757171" d="M137.771,110.894c0.007,0.168,0.014,0.335,0.021,0.502
			c-0.68,0.251-1.057,1.141-1.957,0.926C135.919,111.086,137.151,111.404,137.771,110.894z"/>
		<path fill-rule="evenodd" clip-rule="evenodd" fill="#757272" d="M86.921,109.875c-0.189,0.042-0.379,0.086-0.569,0.129
			c-1.022-0.386-1.103-1.162-0.86-2.073C85.968,108.579,86.445,109.227,86.921,109.875z"/>
		<path fill-rule="evenodd" clip-rule="evenodd" fill="#9E9C9D" d="M253.433,43.823c0.001,0.285,0.003,0.571,0.005,0.857
			c-0.191,0.765-0.66,1.095-1.448,0.926C252.471,45.012,252.951,44.417,253.433,43.823z"/>
		<path fill-rule="evenodd" clip-rule="evenodd" fill="#DCDADA" d="M269.813,93.146c-0.021,0.626-0.042,1.252-0.062,1.877
			C268.084,94.342,268.759,93.737,269.813,93.146z"/>
		<path fill-rule="evenodd" clip-rule="evenodd" fill="#908D8E" d="M226.02,83.061c0.012,0.314,0.022,0.629,0.032,0.944
			c-0.675-0.435-1.498-0.671-1.918-1.444C224.836,82.45,225.435,82.73,226.02,83.061z"/>
		<path fill-rule="evenodd" clip-rule="evenodd" fill="#716F6E" d="M85.388,96.97c-0.859-0.4-1.059-1.1-0.892-1.966
			C85.27,95.442,85.668,96.052,85.388,96.97z"/>
		<path fill-rule="evenodd" clip-rule="evenodd" fill="#C3C0C0" d="M313.896,92.147c-0.831,0.075-1.546-0.108-1.991-0.894
			C312.8,91.036,313.495,91.263,313.896,92.147z"/>
		<path fill-rule="evenodd" clip-rule="evenodd" fill="#5A5957" d="M188.096,95.919c0.224,0.911-0.08,1.578-0.929,1.989
			C186.888,96.971,187.462,96.431,188.096,95.919z"/>
		<path fill-rule="evenodd" clip-rule="evenodd" fill="#6A6868" d="M348.927,97.431c-0.028,0.464-0.057,0.926-0.085,1.389
			c-0.269,0.211-0.538,0.423-0.807,0.634C347.823,98.555,348.039,97.845,348.927,97.431z"/>
		<path fill-rule="evenodd" clip-rule="evenodd" fill="#575555" d="M143.521,82.548c0.745-0.025,1.466-0.02,1.343,1.058
			C144.24,83.477,143.783,83.136,143.521,82.548z"/>
		<path fill-rule="evenodd" clip-rule="evenodd" fill="#716E6E" d="M27.347,83.046c-0.004-0.142-0.018-0.282-0.043-0.422
			c0.979-0.04,1.582,0.309,1.46,1.409C28.292,83.704,27.819,83.375,27.347,83.046z"/>
		<path fill-rule="evenodd" clip-rule="evenodd" fill="#5E5C5C" d="M219.329,55.635c0.323-0.641,0.77-1.054,1.554-0.845
			C220.65,55.596,220.147,55.906,219.329,55.635z"/>
		<path fill-rule="evenodd" clip-rule="evenodd" fill="#8D8C8B" d="M357.562,109.436c0.563,0.287,1.058,0.626,1.013,1.365
			C357.629,110.797,357.464,110.214,357.562,109.436z"/>
		<path fill-rule="evenodd" clip-rule="evenodd" fill="#B9B7B7" d="M173.719,109.954c-0.722,0.007-1.366-0.086-1.317-1.049
			C173.104,108.924,173.471,109.364,173.719,109.954z"/>
		<path fill-rule="evenodd" clip-rule="evenodd" fill="#807D7D" d="M92.173,92.186c-0.134,0.889-0.736,1.014-1.481,0.907
			C91.057,92.581,91.321,91.904,92.173,92.186z"/>
		<path fill-rule="evenodd" clip-rule="evenodd" fill="#FCFCFC" d="M42.685,97.516c0.847,1.004,2.163,1.472,2.873,2.663
			c2.099,3.522,0.519,7.514-4.271,8.801c-2.307,1.03-4.705,0.404-7.068,0.388c-1.286-0.416-1.588-1.407-1.58-2.621
			c0.013-1.911,0.077-3.826-0.019-5.732c-0.093-1.855,0.474-2.911,2.449-3.42c1.282-0.33,2.614-0.598,3.872-1.067l-0.027,0.011
			C40.467,95.716,41.514,96.854,42.685,97.516z"/>
		<path fill-rule="evenodd" clip-rule="evenodd" fill="#FBFBFB" d="M33.159,89.692c0.125-7.323-0.863-5.995,6.265-6.12
			c2.229-0.039,4.384,0.225,5.075,2.884c0.537,2.066-0.828,4.268-3.102,5.8c-1.93,1.3-4.162,1.743-6.239,2.608
			c-1.292,0.538-2.138,0.04-2.016-1.581C33.231,92.093,33.159,90.89,33.159,89.692z"/>
		<path fill-rule="evenodd" clip-rule="evenodd" fill="#353434" d="M38.94,96.526c-0.562,0.277-1.105,0.607-1.689,0.824
			c-4.053,1.504-4.168,1.501-4.005,5.808c0.074,1.941-0.893,4.1,0.823,5.827c0.295,0.231,0.738,0.375,0.525,0.901
			c-1.913-0.021-2.363-1.369-2.418-2.869c-0.087-2.379-0.015-4.764-0.028-7.146c-0.008-1.39,0.565-2.266,2.017-2.449
			C35.774,97.219,37.183,95.946,38.94,96.526z"/>
		<path fill-rule="evenodd" clip-rule="evenodd" fill="#696666" d="M34.594,109.887c-0.175-0.3-0.35-0.601-0.525-0.901
			c2.406-0.002,4.812-0.004,7.217-0.006C39.297,111.062,36.869,109.911,34.594,109.887z"/>
		<path fill-rule="evenodd" clip-rule="evenodd" fill="#333231" d="M42.685,97.516c-1.244-0.38-2.434-0.965-3.772-0.979
			C39.789,95.387,41.491,95.828,42.685,97.516z"/>
		<path fill-rule="evenodd" clip-rule="evenodd" fill="#FCFBFB" d="M239.913,84.616c2.995,4.177,2.785,6.53-0.926,10.364
			c-1.862,1.286-3.999,1.884-6.163,2.353c-1.513,0.327-2.481-0.175-2.444-1.962c0.075-3.591-0.109-7.186,0.096-10.775
			c1.657-2.384,4.093-1.651,6.249-1.32C237.772,83.437,239.012,83.791,239.913,84.616z"/>
		<path fill-rule="evenodd" clip-rule="evenodd" fill="#868484" d="M230.755,84.45c-0.012,3.568,0.015,7.139-0.053,10.706
			c-0.028,1.496,0.549,1.896,2.009,1.766c2.254-0.201,4.194-1.269,6.276-1.941c-2.058,2.145-4.805,2.541-7.537,2.87
			c-1.232,0.148-1.635-0.729-1.621-1.85c0.047-3.83,0.083-7.66,0.123-11.49C230.196,84.185,230.466,84.19,230.755,84.45z"/>
		<path fill-rule="evenodd" clip-rule="evenodd" fill="#6B6A69" d="M230.755,84.45c-0.268,0.02-0.536,0.04-0.803,0.061
			c2.537-2.773,6.747-2.729,9.961,0.105c-2.193-0.969-4.506-1.128-6.854-0.97C232.232,83.702,231.297,83.54,230.755,84.45z"/>
		<path fill-rule="evenodd" clip-rule="evenodd" fill="#FCFCFC" d="M192.61,95.108c1.217-0.771,2.468-1.329,3.989-1.104
			c2.522,0.373,3.517,1.467,3.521,4.044c0.003,2.396-0.163,4.806,0.046,7.183c0.215,2.443-1.046,3.803-3.022,4.468
			c-2.043,0.688-3.897,0.014-5.197-1.822c-0.183-0.258-0.319-0.548-0.478-0.824c-1.918-3.208-1.663-6.482-0.297-9.79
			C191.696,96.575,191.838,95.632,192.61,95.108z"/>
		<path fill-rule="evenodd" clip-rule="evenodd" fill="#747171" d="M191.596,96.997c-1.422,3.334-1.187,6.689-0.128,10.055
			c-1.253-0.103-0.811-1.193-1.087-1.866c-0.611-0.546-0.446-1.376-0.742-2.037c-0.259-2.233,0.248-4.302,1.345-6.242
			C191.222,96.713,191.425,96.743,191.596,96.997z"/>
		<path fill-rule="evenodd" clip-rule="evenodd" fill="#575555" d="M191.596,96.997c-0.204-0.029-0.407-0.061-0.611-0.091
			c0.477-0.658,0.561-1.671,1.625-1.798C192.272,95.738,191.934,96.368,191.596,96.997z"/>
		<path fill-rule="evenodd" clip-rule="evenodd" fill="#474545" d="M189.639,103.148c0.532,0.575,0.583,1.326,0.742,2.037
			C189.303,104.809,189.627,103.922,189.639,103.148z"/>
		<path fill-rule="evenodd" clip-rule="evenodd" fill="#FBFBFB" d="M254.496,102.297c1.523-0.89,3.22-1.27,4.915-1.635
			c0.894-0.192,1.926-0.281,2.124,0.887c0.649,3.83-0.285,8.658-6.15,8.288c-2.256-1.181-3.041-2.985-2.312-5.435
			C253.295,103.531,253.854,102.885,254.496,102.297z"/>
		<path fill-rule="evenodd" clip-rule="evenodd" fill="#A1A0A0" d="M253.343,104.113c-0.274,2.248,0.101,4.266,2.042,5.724
			c-1.232-0.062-1.964-0.789-2.449-1.844c-0.597-1.282-0.556-2.567-0.02-3.855l0.002-0.01
			C253.053,103.928,253.194,103.922,253.343,104.113z"/>
		<path fill-rule="evenodd" clip-rule="evenodd" fill="#726F6F" d="M252.916,104.138c0.006,1.285,0.013,2.57,0.02,3.855
			C251.679,106.715,251.704,105.429,252.916,104.138z"/>
		<path fill-rule="evenodd" clip-rule="evenodd" fill="#726F6F" d="M253.343,104.113c-0.143-0.005-0.283,0.001-0.425,0.015
			c0.096-0.98,0.62-1.593,1.578-1.831C254.111,102.902,253.727,103.508,253.343,104.113z"/>
		<path fill-rule="evenodd" clip-rule="evenodd" fill="#FAFAFA" d="M325.813,99.203c-0.067-0.124-0.051-0.234,0.051-0.333
			c0.544-0.56,0.562-1.368,0.942-2.005c1.166-2.203,3.178-3.26,5.354-2.813c2.058,0.422,2.912,3.391,1.429,5.093
			c-0.401,0.462-0.974,0.775-1.469,1.157c-0.538,0.514-1.376,0.443-1.903,0.979c-0.435,0.022-0.87,0.044-1.305,0.066
			c-0.809,0.398-1.775,0.322-2.541,0.847c-0.157,0.001-0.313,0.001-0.471,0.001C325.128,101.219,325.474,100.211,325.813,99.203z"/>
		<path fill-rule="evenodd" clip-rule="evenodd" fill="#E1DFDF" d="M325.813,99.203c0.029,0.997,0.058,1.994,0.087,2.991
			C324.619,101.58,324.604,101.038,325.813,99.203z"/>
		<path fill-rule="evenodd" clip-rule="evenodd" fill="#E1DFDF" d="M326.371,102.193c0.561-1.14,1.539-1.026,2.541-0.847
			C328.232,102.133,327.336,102.267,326.371,102.193z"/>
		<path fill-rule="evenodd" clip-rule="evenodd" fill="#BAB8B7" d="M330.217,101.28c0.359-0.861,1.034-1.108,1.903-0.979
			C331.68,101.005,331.114,101.466,330.217,101.28z"/>
		<path fill-rule="evenodd" clip-rule="evenodd" fill="#E1DFDF" d="M326.807,96.865c0.171,0.896-0.038,1.614-0.942,2.005
			C325.676,97.966,326.007,97.305,326.807,96.865z"/>
		<path fill-rule="evenodd" clip-rule="evenodd" fill="#FAFAFA" d="M78.158,109.865c-2.059,0.24-3.999-0.181-4.653-2.309
			c-0.673-2.188-0.186-4.276,2.127-5.495c0.415-0.219,0.773-0.546,1.157-0.822c4.828-1.472,5.348-0.959,5.1,3.982
			C81.756,107.867,80.136,108.912,78.158,109.865z"/>
		<path fill-rule="evenodd" clip-rule="evenodd" fill="#524F50" d="M78.158,109.865c2.435-1.611,4.05-3.553,3.689-6.805
			c-0.198-1.785-0.656-2.472-2.47-2.035c-0.832,0.199-1.724,0.149-2.588,0.214c1.351-1.721,3.326-1.26,4.766-0.72
			c1.223,0.459,1.092,2.291,0.9,3.639C81.864,108.291,80.976,109.448,78.158,109.865z"/>
		<path fill-rule="evenodd" clip-rule="evenodd" fill="#585756" d="M360.872,95.499c0.022,0.805,0.045,1.608,0.067,2.412
			C359.922,97.135,359.28,96.349,360.872,95.499z"/>
		<path fill-rule="evenodd" clip-rule="evenodd" fill="#747171" d="M128.153,99.354c0.062,1.919-0.371,3.838-0.005,5.758
			C126.738,103.191,127.15,101.272,128.153,99.354z"/>
	</g>
</g>
</svg>
